Griffith_Gothic-Condensed.ufo
<glyph name="exclam" format="1">
  <advance width="208"/>
  <unicode hex="0021"/>
  <outline>
    <contour>
      <point x="151" y="720" type="line"/>
      <point x="125" y="194" type="line"/>
      <point x="83" y="194" type="line"/>
      <point x="58" y="720" type="line"/>
    </contour>
    <contour>
      <point x="154" y="43" type="curve" smooth="yes"/>
      <point x="154" y="14"/>
      <point x="133" y="-7"/>
      <point x="104" y="-7" type="curve" smooth="yes"/>
      <point x="75" y="-7"/>
      <point x="54" y="14"/>
      <point x="54" y="43" type="curve" smooth="yes"/>
      <point x="54" y="72"/>
      <point x="75" y="93"/>
      <point x="104" y="93" type="curve" smooth="yes"/>
      <point x="133" y="93"/>
      <point x="154" y="72"/>
    </contour>
  </outline>
</glyph>
<glyph name="dollar" format="1">
  <advance width="435"/>
  <unicode hex="0024"/>
  <outline>
    <contour>
      <point x="411" y="188" type="curve" smooth="yes"/>
      <point x="411" y="73"/>
      <point x="337" y="8"/>
      <point x="244" y="-1" type="curve"/>
      <point x="244" y="-95" type="line"/>
      <point x="197" y="-95" type="line"/>
      <point x="197" y="-1" type="line"/>
      <point x="128" y="5"/>
      <point x="69" y="39"/>
      <point x="21" y="105" type="curve"/>
      <point x="69" y="152" type="line"/>
      <point x="107" y="98"/>
      <point x="150" y="67"/>
      <point x="201" y="62" type="curve"/>
      <point x="201" y="342" type="line"/>
      <point x="109" y="382"/>
      <point x="37" y="436"/>
      <point x="37" y="544" type="curve" smooth="yes"/>
      <point x="37" y="644"/>
      <point x="102" y="714"/>
      <point x="197" y="722" type="curve"/>
      <point x="197" y="762" type="line"/>
      <point x="243" y="762" type="line"/>
      <point x="243" y="722" type="line"/>
      <point x="308" y="714"/>
      <point x="355" y="684"/>
      <point x="399" y="626" type="curve"/>
      <point x="349" y="580" type="line"/>
      <point x="314" y="628"/>
      <point x="279" y="653"/>
      <point x="240" y="658" type="curve"/>
      <point x="240" y="401" type="line"/>
      <point x="359" y="349"/>
      <point x="411" y="288"/>
    </contour>
    <contour>
      <point x="201" y="419" type="curve"/>
      <point x="201" y="661" type="line"/>
      <point x="143" y="656"/>
      <point x="108" y="612"/>
      <point x="108" y="550" type="curve" smooth="yes"/>
      <point x="108" y="489"/>
      <point x="138" y="449"/>
    </contour>
    <contour>
      <point x="337" y="180" type="curve" smooth="yes"/>
      <point x="337" y="245"/>
      <point x="315" y="285"/>
      <point x="240" y="324" type="curve"/>
      <point x="240" y="59" type="line"/>
      <point x="300" y="66"/>
      <point x="337" y="108"/>
    </contour>
  </outline>
</glyph>
<glyph name="asterisk" format="1">
  <advance width="330"/>
  <unicode hex="002A"/>
  <outline>
    <contour>
      <point x="303" y="601" type="line"/>
      <point x="187" y="582" type="line"/>
      <point x="273" y="497" type="line"/>
      <point x="222" y="460" type="line"/>
      <point x="165" y="568" type="line"/>
      <point x="108" y="460" type="line"/>
      <point x="57" y="497" type="line"/>
      <point x="143" y="582" type="line"/>
      <point x="27" y="601" type="line"/>
      <point x="46" y="659" type="line"/>
      <point x="152" y="603" type="line"/>
      <point x="134" y="720" type="line"/>
      <point x="196" y="720" type="line"/>
      <point x="178" y="603" type="line"/>
      <point x="284" y="659" type="line"/>
    </contour>
  </outline>
</glyph>
<glyph name="plus" format="1">
  <advance width="473"/>
  <unicode hex="002B"/>
  <outline>
    <contour>
      <point x="439" y="322" type="line"/>
      <point x="271" y="322" type="line"/>
      <point x="271" y="138" type="line"/>
      <point x="202" y="138" type="line"/>
      <point x="202" y="322" type="line"/>
      <point x="33" y="322" type="line"/>
      <point x="33" y="388" type="line"/>
      <point x="202" y="388" type="line"/>
      <point x="202" y="572" type="line"/>
      <point x="271" y="572" type="line"/>
      <point x="271" y="388" type="line"/>
      <point x="439" y="388" type="line"/>
    </contour>
  </outline>
</glyph>
<glyph name="one" format="1">
  <advance width="347"/>
  <unicode hex="0031"/>
  <outline>
    <contour>
      <point x="330" y="0" type="line"/>
      <point x="37" y="0" type="line"/>
      <point x="37" y="56" type="line"/>
      <point x="147" y="56" type="line"/>
      <point x="147" y="664" type="line"/>
      <point x="28" y="664" type="line"/>
      <point x="28" y="720" type="line"/>
      <point x="225" y="720" type="line"/>
      <point x="225" y="56" type="line"/>
      <point x="330" y="56" type="line"/>
    </contour>
  </outline>
</glyph>
<glyph name="two" format="1">
  <advance width="441"/>
  <unicode hex="0032"/>
  <outline>
    <contour>
      <point x="401" y="0" type="line"/>
      <point x="40" y="0" type="line"/>
      <point x="40" y="52" type="line"/>
      <point x="68" y="165"/>
      <point x="113" y="236"/>
      <point x="218" y="337" type="curve" smooth="yes"/>
      <point x="286" y="401"/>
      <point x="316" y="453"/>
      <point x="316" y="535" type="curve" smooth="yes"/>
      <point x="316" y="611"/>
      <point x="286" y="667"/>
      <point x="223" y="667" type="curve" smooth="yes"/>
      <point x="165" y="667"/>
      <point x="131" y="624"/>
      <point x="104" y="529" type="curve"/>
      <point x="36" y="552" type="line"/>
      <point x="69" y="674"/>
      <point x="131" y="732"/>
      <point x="225" y="732" type="curve" smooth="yes"/>
      <point x="339" y="732"/>
      <point x="395" y="648"/>
      <point x="395" y="536" type="curve" smooth="yes"/>
      <point x="395" y="422"/>
      <point x="341" y="360"/>
      <point x="263" y="286" type="curve" smooth="yes"/>
      <point x="182" y="211"/>
      <point x="141" y="144"/>
      <point x="122" y="64" type="curve"/>
      <point x="401" y="64" type="line"/>
    </contour>
  </outline>
</glyph>
<glyph name="four" format="1">
  <advance width="453"/>
  <unicode hex="0034"/>
  <outline>
    <contour>
      <point x="427" y="199" type="line"/>
      <point x="356" y="199" type="line"/>
      <point x="356" y="0" type="line"/>
      <point x="278" y="0" type="line"/>
      <point x="278" y="199" type="line"/>
      <point x="27" y="199" type="line"/>
      <point x="27" y="266" type="line"/>
      <point x="254" y="720" type="line"/>
      <point x="356" y="720" type="line"/>
      <point x="356" y="250" type="line"/>
      <point x="427" y="250" type="line"/>
    </contour>
    <contour>
      <point x="278" y="250" type="line"/>
      <point x="278" y="639" type="line"/>
      <point x="271" y="639" type="line"/>
      <point x="82" y="259" type="line"/>
      <point x="82" y="250" type="line"/>
    </contour>
  </outline>
</glyph>
<glyph name="eight" format="1">
  <advance width="465"/>
  <unicode hex="0038"/>
  <outline>
    <contour>
      <point x="433" y="194" type="curve" smooth="yes"/>
      <point x="433" y="60"/>
      <point x="338" y="-12"/>
      <point x="232" y="-12" type="curve" smooth="yes"/>
      <point x="126" y="-12"/>
      <point x="32" y="58"/>
      <point x="32" y="192" type="curve" smooth="yes"/>
      <point x="32" y="297"/>
      <point x="86" y="361"/>
      <point x="145" y="382" type="curve"/>
      <point x="145" y="387" type="line"/>
      <point x="94" y="409"/>
      <point x="48" y="463"/>
      <point x="48" y="549" type="curve" smooth="yes"/>
      <point x="48" y="659"/>
      <point x="127" y="732"/>
      <point x="232" y="732" type="curve" smooth="yes"/>
      <point x="337" y="732"/>
      <point x="417" y="661"/>
      <point x="417" y="551" type="curve" smooth="yes"/>
      <point x="417" y="466"/>
      <point x="370" y="410"/>
      <point x="319" y="387" type="curve"/>
      <point x="319" y="382" type="line"/>
      <point x="378" y="361"/>
      <point x="433" y="298"/>
    </contour>
    <contour>
      <point x="339" y="541" type="curve" smooth="yes"/>
      <point x="339" y="622"/>
      <point x="300" y="673"/>
      <point x="232" y="673" type="curve" smooth="yes"/>
      <point x="164" y="673"/>
      <point x="125" y="622"/>
      <point x="125" y="543" type="curve" smooth="yes"/>
      <point x="125" y="460"/>
      <point x="169" y="408"/>
      <point x="232" y="408" type="curve" smooth="yes"/>
      <point x="294" y="408"/>
      <point x="339" y="456"/>
    </contour>
    <contour>
      <point x="352" y="198" type="curve" smooth="yes"/>
      <point x="352" y="297"/>
      <point x="301" y="357"/>
      <point x="232" y="357" type="curve" smooth="yes"/>
      <point x="162" y="357"/>
      <point x="112" y="299"/>
      <point x="112" y="200" type="curve" smooth="yes"/>
      <point x="112" y="103"/>
      <point x="160" y="47"/>
      <point x="232" y="47" type="curve" smooth="yes"/>
      <point x="303" y="47"/>
      <point x="352" y="101"/>
    </contour>
  </outline>
</glyph>
<glyph name="nine" format="1">
  <advance width="451"/>
  <unicode hex="0039"/>
  <outline>
    <contour>
      <point x="417" y="470" type="curve" smooth="yes"/>
      <point x="417" y="291"/>
      <point x="348" y="131"/>
      <point x="233" y="0" type="curve"/>
      <point x="133" y="0" type="line"/>
      <point x="244" y="110"/>
      <point x="314" y="244"/>
      <point x="334" y="352" type="curve"/>
      <point x="329" y="352" type="line"/>
      <point x="298" y="303"/>
      <point x="260" y="269"/>
      <point x="194" y="269" type="curve" smooth="yes"/>
      <point x="98" y="269"/>
      <point x="22" y="347"/>
      <point x="22" y="491" type="curve" smooth="yes"/>
      <point x="22" y="640"/>
      <point x="104" y="732"/>
      <point x="223" y="732" type="curve" smooth="yes"/>
      <point x="342" y="732"/>
      <point x="417" y="644"/>
    </contour>
    <contour>
      <point x="336" y="497" type="curve" smooth="yes"/>
      <point x="336" y="599"/>
      <point x="295" y="672"/>
      <point x="220" y="672" type="curve" smooth="yes"/>
      <point x="146" y="672"/>
      <point x="104" y="600"/>
      <point x="104" y="497" type="curve" smooth="yes"/>
      <point x="104" y="396"/>
      <point x="141" y="329"/>
      <point x="215" y="329" type="curve" smooth="yes"/>
      <point x="291" y="329"/>
      <point x="336" y="404"/>
    </contour>
  </outline>
</glyph>
<glyph name="less" format="1">
  <advance width="472"/>
  <unicode hex="003C"/>
  <outline>
    <contour>
      <point x="431" y="132" type="line"/>
      <point x="35" y="320" type="line"/>
      <point x="35" y="389" type="line"/>
      <point x="431" y="578" type="line"/>
      <point x="431" y="503" type="line"/>
      <point x="105" y="354" type="line"/>
      <point x="431" y="207" type="line"/>
    </contour>
  </outline>
</glyph>
<glyph name="question" format="1">
  <advance width="370"/>
  <unicode hex="003F"/>
  <outline>
    <contour>
      <point x="339" y="563" type="curve" smooth="yes"/>
      <point x="339" y="477"/>
      <point x="311" y="438"/>
      <point x="253" y="370" type="curve" smooth="yes"/>
      <point x="208" y="318"/>
      <point x="195" y="286"/>
      <point x="193" y="194" type="curve"/>
      <point x="148" y="194" type="line"/>
      <point x="139" y="311"/>
      <point x="149" y="353"/>
      <point x="206" y="420" type="curve" smooth="yes"/>
      <point x="246" y="468"/>
      <point x="262" y="507"/>
      <point x="262" y="559" type="curve" smooth="yes"/>
      <point x="262" y="624"/>
      <point x="232" y="667"/>
      <point x="182" y="667" type="curve" smooth="yes"/>
      <point x="133" y="667"/>
      <point x="104" y="632"/>
      <point x="82" y="550" type="curve"/>
      <point x="16" y="573" type="line"/>
      <point x="39" y="675"/>
      <point x="92" y="732"/>
      <point x="186" y="732" type="curve" smooth="yes"/>
      <point x="282" y="732"/>
      <point x="339" y="664"/>
    </contour>
    <contour>
      <point x="221" y="43" type="curve" smooth="yes"/>
      <point x="221" y="14"/>
      <point x="200" y="-7"/>
      <point x="171" y="-7" type="curve" smooth="yes"/>
      <point x="142" y="-7"/>
      <point x="121" y="14"/>
      <point x="121" y="43" type="curve" smooth="yes"/>
      <point x="121" y="72"/>
      <point x="142" y="93"/>
      <point x="171" y="93" type="curve" smooth="yes"/>
      <point x="200" y="93"/>
      <point x="221" y="72"/>
    </contour>
  </outline>
</glyph>
<glyph name="A" format="1">
  <advance width="532"/>
  <unicode hex="0041"/>
  <outline>
    <contour>
      <point x="513" y="0" type="line"/>
      <point x="428" y="0" type="line"/>
      <point x="382" y="185" type="line"/>
      <point x="146" y="185" type="line"/>
      <point x="100" y="0" type="line"/>
      <point x="18" y="0" type="line"/>
      <point x="209" y="724" type="line"/>
      <point x="323" y="724" type="line"/>
    </contour>
    <contour>
      <point x="370" y="246" type="line"/>
      <point x="267" y="650" type="line"/>
      <point x="262" y="650" type="line"/>
      <point x="158" y="246" type="line"/>
    </contour>
  </outline>
</glyph>
<glyph name="C" format="1">
  <advance width="459"/>
  <unicode hex="0043"/>
  <outline>
    <contour>
      <point x="433" y="212" type="line"/>
      <point x="410" y="72"/>
      <point x="356" y="-12"/>
      <point x="240" y="-12" type="curve" smooth="yes"/>
      <point x="116" y="-12"/>
      <point x="38" y="109"/>
      <point x="38" y="313" type="curve" smooth="yes"/>
      <point x="38" y="406" type="line" smooth="yes"/>
      <point x="38" y="610"/>
      <point x="116" y="732"/>
      <point x="240" y="732" type="curve" smooth="yes"/>
      <point x="352" y="732"/>
      <point x="408" y="651"/>
      <point x="429" y="520" type="curve"/>
      <point x="352" y="499" type="line"/>
      <point x="335" y="611"/>
      <point x="304" y="668"/>
      <point x="240" y="668" type="curve" smooth="yes"/>
      <point x="159" y="668"/>
      <point x="121" y="562"/>
      <point x="121" y="415" type="curve" smooth="yes"/>
      <point x="121" y="307" type="line" smooth="yes"/>
      <point x="121" y="157"/>
      <point x="162" y="52"/>
      <point x="242" y="52" type="curve" smooth="yes"/>
      <point x="306" y="52"/>
      <point x="338" y="109"/>
      <point x="358" y="230" type="curve"/>
    </contour>
  </outline>
</glyph>
<glyph name="D" format="1">
  <advance width="487"/>
  <unicode hex="0044"/>
  <outline>
    <contour>
      <point x="449" y="317" type="line" smooth="yes"/>
      <point x="449" y="113"/>
      <point x="358" y="0"/>
      <point x="203" y="0" type="curve" smooth="yes"/>
      <point x="59" y="0" type="line"/>
      <point x="59" y="720" type="line"/>
      <point x="206" y="720" type="line" smooth="yes"/>
      <point x="361" y="720"/>
      <point x="449" y="607"/>
      <point x="449" y="404" type="curve" smooth="yes"/>
    </contour>
    <contour>
      <point x="366" y="301" type="curve" smooth="yes"/>
      <point x="366" y="417" type="line" smooth="yes"/>
      <point x="366" y="571"/>
      <point x="308" y="658"/>
      <point x="200" y="658" type="curve" smooth="yes"/>
      <point x="142" y="658" type="line"/>
      <point x="142" y="62" type="line"/>
      <point x="203" y="62" type="line" smooth="yes"/>
      <point x="307" y="62"/>
      <point x="366" y="149"/>
    </contour>
  </outline>
</glyph>
<glyph name="F" format="1">
  <advance width="401"/>
  <unicode hex="0046"/>
  <outline>
    <contour>
      <point x="386" y="654" type="line"/>
      <point x="142" y="654" type="line"/>
      <point x="142" y="391" type="line"/>
      <point x="336" y="391" type="line"/>
      <point x="336" y="326" type="line"/>
      <point x="142" y="326" type="line"/>
      <point x="142" y="0" type="line"/>
      <point x="59" y="0" type="line"/>
      <point x="59" y="720" type="line"/>
      <point x="386" y="720" type="line"/>
    </contour>
  </outline>
</glyph>
<glyph name="H" format="1">
  <advance width="497"/>
  <unicode hex="0048"/>
  <outline>
    <contour>
      <point x="439" y="0" type="line"/>
      <point x="355" y="0" type="line"/>
      <point x="355" y="342" type="line"/>
      <point x="142" y="342" type="line"/>
      <point x="142" y="0" type="line"/>
      <point x="59" y="0" type="line"/>
      <point x="59" y="720" type="line"/>
      <point x="142" y="720" type="line"/>
      <point x="142" y="409" type="line"/>
      <point x="355" y="409" type="line"/>
      <point x="355" y="720" type="line"/>
      <point x="439" y="720" type="line"/>
    </contour>
  </outline>
</glyph>
<glyph name="I" format="1">
  <advance width="320"/>
  <unicode hex="0049"/>
  <outline>
    <contour>
      <point x="280" y="0" type="line"/>
      <point x="39" y="0" type="line"/>
      <point x="39" y="36" type="line"/>
      <point x="119" y="36" type="line"/>
      <point x="119" y="684" type="line"/>
      <point x="39" y="684" type="line"/>
      <point x="39" y="720" type="line"/>
      <point x="280" y="720" type="line"/>
      <point x="280" y="684" type="line"/>
      <point x="201" y="684" type="line"/>
      <point x="201" y="36" type="line"/>
      <point x="280" y="36" type="line"/>
    </contour>
  </outline>
</glyph>
<glyph name="J" format="1">
  <advance width="403"/>
  <unicode hex="004A"/>
  <outline>
    <contour>
      <point x="346" y="190" type="line" smooth="yes"/>
      <point x="346" y="56"/>
      <point x="283" y="-12"/>
      <point x="179" y="-12" type="curve" smooth="yes"/>
      <point x="77" y="-12"/>
      <point x="18" y="51"/>
      <point x="17" y="185" type="curve"/>
      <point x="92" y="207" type="line"/>
      <point x="94" y="94"/>
      <point x="127" y="53"/>
      <point x="181" y="53" type="curve" smooth="yes"/>
      <point x="233" y="53"/>
      <point x="262" y="95"/>
      <point x="262" y="188" type="curve" smooth="yes"/>
      <point x="262" y="720" type="line"/>
      <point x="346" y="720" type="line"/>
    </contour>
  </outline>
</glyph>
<glyph name="K" format="1">
  <advance width="482"/>
  <unicode hex="004B"/>
  <outline>
    <contour>
      <point x="481" y="0" type="line"/>
      <point x="388" y="0" type="line"/>
      <point x="163" y="386" type="line"/>
      <point x="163" y="388" type="line"/>
      <point x="379" y="720" type="line"/>
      <point x="470" y="720" type="line"/>
      <point x="248" y="391" type="line"/>
    </contour>
    <contour>
      <point x="142" y="0" type="line"/>
      <point x="59" y="0" type="line"/>
      <point x="59" y="720" type="line"/>
      <point x="142" y="720" type="line"/>
    </contour>
  </outline>
</glyph>
<glyph name="L" format="1">
  <advance width="394"/>
  <unicode hex="004C"/>
  <outline>
    <contour>
      <point x="385" y="0" type="line"/>
      <point x="59" y="0" type="line"/>
      <point x="59" y="720" type="line"/>
      <point x="142" y="720" type="line"/>
      <point x="142" y="67" type="line"/>
      <point x="385" y="67" type="line"/>
    </contour>
  </outline>
</glyph>
<glyph name="O" format="1">
  <advance width="491"/>
  <unicode hex="004F"/>
  <outline>
    <contour>
      <point x="453" y="314" type="line" smooth="yes"/>
      <point x="453" y="110"/>
      <point x="375" y="-12"/>
      <point x="246" y="-12" type="curve" smooth="yes"/>
      <point x="116" y="-12"/>
      <point x="38" y="109"/>
      <point x="38" y="313" type="curve" smooth="yes"/>
      <point x="38" y="406" type="line" smooth="yes"/>
      <point x="38" y="610"/>
      <point x="116" y="732"/>
      <point x="246" y="732" type="curve" smooth="yes"/>
      <point x="375" y="732"/>
      <point x="453" y="611"/>
      <point x="453" y="407" type="curve" smooth="yes"/>
    </contour>
    <contour>
      <point x="370" y="297" type="curve" smooth="yes"/>
      <point x="370" y="421" type="line" smooth="yes"/>
      <point x="370" y="562"/>
      <point x="331" y="670"/>
      <point x="246" y="670" type="curve" smooth="yes"/>
      <point x="160" y="670"/>
      <point x="121" y="564"/>
      <point x="121" y="423" type="curve" smooth="yes"/>
      <point x="121" y="299" type="line" smooth="yes"/>
      <point x="121" y="157"/>
      <point x="160" y="50"/>
      <point x="246" y="50" type="curve" smooth="yes"/>
      <point x="331" y="50"/>
      <point x="370" y="156"/>
    </contour>
  </outline>
</glyph>
<glyph name="P" format="1">
  <advance width="451"/>
  <unicode hex="0050"/>
  <outline>
    <contour>
      <point x="425" y="511" type="curve" smooth="yes"/>
      <point x="425" y="372"/>
      <point x="345" y="296"/>
      <point x="205" y="296" type="curve" smooth="yes"/>
      <point x="142" y="296" type="line"/>
      <point x="142" y="0" type="line"/>
      <point x="59" y="0" type="line"/>
      <point x="59" y="720" type="line"/>
      <point x="207" y="720" type="line" smooth="yes"/>
      <point x="344" y="720"/>
      <point x="425" y="648"/>
    </contour>
    <contour>
      <point x="345" y="508" type="curve" smooth="yes"/>
      <point x="345" y="605"/>
      <point x="300" y="658"/>
      <point x="210" y="658" type="curve" smooth="yes"/>
      <point x="141" y="658" type="line"/>
      <point x="141" y="359" type="line"/>
      <point x="213" y="359" type="line" smooth="yes"/>
      <point x="300" y="359"/>
      <point x="345" y="410"/>
    </contour>
  </outline>
</glyph>
<glyph name="Y" format="1">
  <advance width="490"/>
  <unicode hex="0059"/>
  <outline>
    <contour>
      <point x="478" y="720" type="line"/>
      <point x="286" y="281" type="line"/>
      <point x="286" y="0" type="line"/>
      <point x="203" y="0" type="line"/>
      <point x="203" y="280" type="line"/>
      <point x="11" y="720" type="line"/>
      <point x="100" y="720" type="line"/>
      <point x="250" y="359" type="line"/>
      <point x="397" y="720" type="line"/>
    </contour>
  </outline>
</glyph>
<glyph name="Z" format="1">
  <advance width="434"/>
  <unicode hex="005A"/>
  <outline>
    <contour>
      <point x="408" y="0" type="line"/>
      <point x="25" y="0" type="line"/>
      <point x="25" y="57" type="line"/>
      <point x="317" y="654" type="line"/>
      <point x="39" y="654" type="line"/>
      <point x="39" y="720" type="line"/>
      <point x="408" y="720" type="line"/>
      <point x="408" y="663" type="line"/>
      <point x="117" y="66" type="line"/>
      <point x="408" y="66" type="line"/>
    </contour>
  </outline>
</glyph>
<glyph name="bracketleft" format="1">
  <advance width="284"/>
  <unicode hex="005B"/>
  <outline>
    <contour>
      <point x="265" y="-80" type="line"/>
      <point x="60" y="-89" type="line"/>
      <point x="60" y="729" type="line"/>
      <point x="265" y="720" type="line"/>
      <point x="265" y="678" type="line"/>
      <point x="129" y="685" type="line"/>
      <point x="129" y="-45" type="line"/>
      <point x="265" y="-38" type="line"/>
    </contour>
  </outline>
</glyph>
<glyph name="bracketright" format="1">
  <advance width="284"/>
  <unicode hex="005D"/>
  <outline>
    <contour>
      <point x="223" y="-89" type="line"/>
      <point x="19" y="-80" type="line"/>
      <point x="19" y="-38" type="line"/>
      <point x="154" y="-45" type="line"/>
      <point x="154" y="685" type="line"/>
      <point x="19" y="678" type="line"/>
      <point x="19" y="720" type="line"/>
      <point x="223" y="729" type="line"/>
    </contour>
  </outline>
</glyph>
<glyph name="asciicircum" format="1">
  <advance width="405"/>
  <unicode hex="005E"/>
  <outline>
    <contour>
      <point x="371" y="455" type="line"/>
      <point x="319" y="455" type="line"/>
      <point x="203" y="646" type="line"/>
      <point x="86" y="455" type="line"/>
      <point x="34" y="455" type="line"/>
      <point x="166" y="724" type="line"/>
      <point x="239" y="724" type="line"/>
    </contour>
  </outline>
</glyph>
<glyph name="a" format="1">
  <advance width="394"/>
  <unicode hex="0061"/>
  <outline>
    <contour>
      <point x="378" y="-4" type="line"/>
      <point x="314" y="-4"/>
      <point x="276" y="29"/>
      <point x="264" y="76" type="curve"/>
      <point x="260" y="76" type="line"/>
      <point x="233" y="32"/>
      <point x="193" y="-7"/>
      <point x="137" y="-7" type="curve" smooth="yes"/>
      <point x="70" y="-7"/>
      <point x="22" y="42"/>
      <point x="22" y="127" type="curve" smooth="yes"/>
      <point x="22" y="225"/>
      <point x="99" y="297"/>
      <point x="260" y="311" type="curve"/>
      <point x="260" y="380" type="line" smooth="yes"/>
      <point x="260" y="439"/>
      <point x="239" y="467"/>
      <point x="196" y="467" type="curve" smooth="yes"/>
      <point x="157" y="467"/>
      <point x="122" y="452"/>
      <point x="74" y="423" type="curve"/>
      <point x="51" y="474" type="line"/>
      <point x="100" y="504"/>
      <point x="152" y="526"/>
      <point x="217" y="526" type="curve" smooth="yes"/>
      <point x="301" y="526"/>
      <point x="337" y="483"/>
      <point x="337" y="384" type="curve" smooth="yes"/>
      <point x="337" y="100" type="line" smooth="yes"/>
      <point x="337" y="61"/>
      <point x="349" y="40"/>
      <point x="378" y="38" type="curve"/>
    </contour>
    <contour>
      <point x="260" y="117" type="curve"/>
      <point x="260" y="272" type="line"/>
      <point x="142" y="259"/>
      <point x="97" y="201"/>
      <point x="97" y="136" type="curve" smooth="yes"/>
      <point x="97" y="80"/>
      <point x="126" y="46"/>
      <point x="170" y="46" type="curve" smooth="yes"/>
      <point x="203" y="46"/>
      <point x="235" y="69"/>
    </contour>
  </outline>
</glyph>
<glyph name="d" format="1">
  <advance width="417"/>
  <unicode hex="0064"/>
  <outline>
    <contour>
      <point x="368" y="13" type="line"/>
      <point x="289" y="-9" type="line"/>
      <point x="289" y="96" type="line"/>
      <point x="285" y="96" type="line"/>
      <point x="254" y="36"/>
      <point x="218" y="-9"/>
      <point x="164" y="-9" type="curve" smooth="yes"/>
      <point x="90" y="-9"/>
      <point x="31" y="76"/>
      <point x="31" y="245" type="curve" smooth="yes"/>
      <point x="31" y="276" type="line" smooth="yes"/>
      <point x="31" y="443"/>
      <point x="94" y="530"/>
      <point x="166" y="530" type="curve" smooth="yes"/>
      <point x="217" y="530"/>
      <point x="256" y="485"/>
      <point x="285" y="429" type="curve"/>
      <point x="289" y="429" type="line"/>
      <point x="289" y="738" type="line"/>
      <point x="368" y="760" type="line"/>
    </contour>
    <contour>
      <point x="294" y="260" type="curve" smooth="yes"/>
      <point x="294" y="380"/>
      <point x="250" y="472"/>
      <point x="193" y="472" type="curve" smooth="yes"/>
      <point x="144" y="472"/>
      <point x="108" y="404"/>
      <point x="108" y="261" type="curve" smooth="yes"/>
      <point x="108" y="112"/>
      <point x="146" y="49"/>
      <point x="195" y="49" type="curve" smooth="yes"/>
      <point x="249" y="49"/>
      <point x="294" y="140"/>
    </contour>
  </outline>
</glyph>
<glyph name="e" format="1">
  <advance width="381"/>
  <unicode hex="0065"/>
  <outline>
    <contour>
      <point x="351" y="243" type="line"/>
      <point x="105" y="243" type="line"/>
      <point x="105" y="227" type="line" smooth="yes"/>
      <point x="105" y="112"/>
      <point x="147" y="51"/>
      <point x="216" y="51" type="curve" smooth="yes"/>
      <point x="256" y="51"/>
      <point x="293" y="70"/>
      <point x="327" y="103" type="curve"/>
      <point x="351" y="53" type="line"/>
      <point x="311" y="16"/>
      <point x="265" y="-9"/>
      <point x="205" y="-9" type="curve" smooth="yes"/>
      <point x="99" y="-9"/>
      <point x="31" y="77"/>
      <point x="31" y="232" type="curve" smooth="yes"/>
      <point x="31" y="287" type="line" smooth="yes"/>
      <point x="31" y="435"/>
      <point x="95" y="531"/>
      <point x="195" y="531" type="curve" smooth="yes"/>
      <point x="294" y="531"/>
      <point x="351" y="426"/>
      <point x="351" y="264" type="curve" smooth="yes"/>
    </contour>
    <contour>
      <point x="278" y="285" type="line"/>
      <point x="276" y="404"/>
      <point x="245" y="478"/>
      <point x="194" y="478" type="curve" smooth="yes"/>
      <point x="137" y="478"/>
      <point x="105" y="407"/>
      <point x="105" y="288" type="curve" smooth="yes"/>
      <point x="105" y="285" type="line"/>
    </contour>
  </outline>
</glyph>
<glyph name="f" format="1">
  <advance width="265"/>
  <unicode hex="0066"/>
  <outline>
    <contour>
      <point x="279" y="688" type="line"/>
      <point x="261" y="698"/>
      <point x="247" y="703"/>
      <point x="222" y="703" type="curve" smooth="yes"/>
      <point x="188" y="703"/>
      <point x="165" y="682"/>
      <point x="165" y="630" type="curve" smooth="yes"/>
      <point x="165" y="517" type="line"/>
      <point x="259" y="517" type="line"/>
      <point x="259" y="461" type="line"/>
      <point x="165" y="461" type="line"/>
      <point x="165" y="0" type="line"/>
      <point x="88" y="0" type="line"/>
      <point x="88" y="461" type="line"/>
      <point x="9" y="461" type="line"/>
      <point x="9" y="517" type="line"/>
      <point x="88" y="517" type="line"/>
      <point x="88" y="634" type="line" smooth="yes"/>
      <point x="88" y="718"/>
      <point x="132" y="759"/>
      <point x="203" y="759" type="curve" smooth="yes"/>
      <point x="240" y="759"/>
      <point x="258" y="755"/>
      <point x="279" y="747" type="curve"/>
    </contour>
  </outline>
</glyph>
<glyph name="l" format="1">
  <advance width="189"/>
  <unicode hex="006C"/>
  <outline>
    <contour>
      <point x="134" y="0" type="line"/>
      <point x="55" y="0" type="line"/>
      <point x="55" y="738" type="line"/>
      <point x="134" y="760" type="line"/>
    </contour>
  </outline>
</glyph>
<glyph name="n" format="1">
  <advance width="405"/>
  <unicode hex="006E"/>
  <outline>
    <contour>
      <point x="358" y="0" type="line"/>
      <point x="279" y="0" type="line"/>
      <point x="279" y="400" type="line" smooth="yes"/>
      <point x="279" y="445"/>
      <point x="263" y="465"/>
      <point x="232" y="465" type="curve" smooth="yes"/>
      <point x="199" y="465"/>
      <point x="162" y="435"/>
      <point x="128" y="375" type="curve"/>
      <point x="128" y="0" type="line"/>
      <point x="49" y="0" type="line"/>
      <point x="49" y="508" type="line"/>
      <point x="128" y="530" type="line"/>
      <point x="128" y="421" type="line"/>
      <point x="132" y="421" type="line"/>
      <point x="176" y="486"/>
      <point x="215" y="526"/>
      <point x="271" y="526" type="curve" smooth="yes"/>
      <point x="328" y="526"/>
      <point x="358" y="484"/>
      <point x="358" y="417" type="curve" smooth="yes"/>
    </contour>
  </outline>
</glyph>
<glyph name="braceleft" format="1">
  <advance width="316"/>
  <unicode hex="007B"/>
  <outline>
    <contour>
      <point x="291" y="-80" type="line"/>
      <point x="221" y="-80" type="line" smooth="yes"/>
      <point x="144" y="-80"/>
      <point x="105" y="-39"/>
      <point x="105" y="45" type="curve" smooth="yes"/>
      <point x="105" y="90"/>
      <point x="120" y="156"/>
      <point x="120" y="199" type="curve" smooth="yes"/>
      <point x="120" y="270"/>
      <point x="75" y="298"/>
      <point x="16" y="298" type="curve"/>
      <point x="16" y="342" type="line"/>
      <point x="75" y="342"/>
      <point x="120" y="370"/>
      <point x="120" y="441" type="curve" smooth="yes"/>
      <point x="120" y="484"/>
      <point x="105" y="550"/>
      <point x="105" y="595" type="curve" smooth="yes"/>
      <point x="105" y="679"/>
      <point x="144" y="720"/>
      <point x="221" y="720" type="curve" smooth="yes"/>
      <point x="291" y="720" type="line"/>
      <point x="291" y="678" type="line"/>
      <point x="245" y="678" type="line" smooth="yes"/>
      <point x="197" y="678"/>
      <point x="175" y="652"/>
      <point x="175" y="597" type="curve" smooth="yes"/>
      <point x="175" y="557"/>
      <point x="190" y="496"/>
      <point x="190" y="447" type="curve" smooth="yes"/>
      <point x="190" y="370"/>
      <point x="149" y="343"/>
      <point x="105" y="324" type="curve"/>
      <point x="105" y="316" type="line"/>
      <point x="149" y="297"/>
      <point x="190" y="270"/>
      <point x="190" y="193" type="curve" smooth="yes"/>
      <point x="190" y="144"/>
      <point x="175" y="83"/>
      <point x="175" y="43" type="curve" smooth="yes"/>
      <point x="175" y="-12"/>
      <point x="197" y="-38"/>
      <point x="245" y="-38" type="curve" smooth="yes"/>
      <point x="291" y="-38" type="line"/>
    </contour>
  </outline>
</glyph>
<glyph name="asciitilde" format="1">
  <advance width="304"/>
  <unicode hex="007E"/>
  <outline>
    <contour>
      <point x="277" y="334" type="line"/>
      <point x="279" y="262"/>
      <point x="257" y="230"/>
      <point x="212" y="230" type="curve" smooth="yes"/>
      <point x="166" y="230"/>
      <point x="126" y="275"/>
      <point x="95" y="275" type="curve" smooth="yes"/>
      <point x="73" y="275"/>
      <point x="64" y="261"/>
      <point x="64" y="232" type="curve"/>
      <point x="26" y="232" type="line"/>
      <point x="24" y="303"/>
      <point x="46" y="336"/>
      <point x="92" y="336" type="curve" smooth="yes"/>
      <point x="139" y="336"/>
      <point x="179" y="291"/>
      <point x="209" y="291" type="curve" smooth="yes"/>
      <point x="231" y="291"/>
      <point x="240" y="304"/>
      <point x="240" y="334" type="curve"/>
    </contour>
  </outline>
</glyph>
<glyph name="cent" format="1">
  <advance width="368"/>
  <unicode hex="00A2"/>
  <outline>
    <contour>
      <point x="341" y="136" type="line"/>
      <point x="323" y="48"/>
      <point x="276" y="-10"/>
      <point x="194" y="-10" type="curve" smooth="yes"/>
      <point x="172" y="-10"/>
      <point x="153" y="-6"/>
      <point x="134" y="3" type="curve"/>
      <point x="100" y="-95" type="line"/>
      <point x="60" y="-95" type="line"/>
      <point x="102" y="25" type="line"/>
      <point x="57" y="64"/>
      <point x="31" y="138"/>
      <point x="31" y="232" type="curve" smooth="yes"/>
      <point x="31" y="294" type="line" smooth="yes"/>
      <point x="31" y="440"/>
      <point x="97" y="531"/>
      <point x="193" y="531" type="curve" smooth="yes"/>
      <point x="221" y="531"/>
      <point x="246" y="524"/>
      <point x="265" y="512" type="curve"/>
      <point x="300" y="616" type="line"/>
      <point x="340" y="616" type="line"/>
      <point x="158" y="59" type="line"/>
      <point x="170" y="49"/>
      <point x="184" y="45"/>
      <point x="198" y="45" type="curve" smooth="yes"/>
      <point x="238" y="45"/>
      <point x="267" y="81"/>
      <point x="281" y="152" type="curve"/>
    </contour>
    <contour>
      <point x="244" y="454" type="line"/>
      <point x="231" y="469"/>
      <point x="213" y="476"/>
      <point x="192" y="476" type="curve" smooth="yes"/>
      <point x="142" y="476"/>
      <point x="104" y="413"/>
      <point x="104" y="299" type="curve" smooth="yes"/>
      <point x="104" y="232" type="line" smooth="yes"/>
      <point x="104" y="169"/>
      <point x="114" y="122"/>
      <point x="132" y="91" type="curve"/>
    </contour>
  </outline>
</glyph>
<glyph name="yen" format="1">
  <advance width="483"/>
  <unicode hex="00A5"/>
  <outline>
    <contour>
      <point x="467" y="720" type="line"/>
      <point x="324" y="385" type="line"/>
      <point x="432" y="385" type="line"/>
      <point x="432" y="337" type="line"/>
      <point x="305" y="337" type="line"/>
      <point x="281" y="281" type="line"/>
      <point x="281" y="213" type="line"/>
      <point x="432" y="213" type="line"/>
      <point x="432" y="165" type="line"/>
      <point x="281" y="165" type="line"/>
      <point x="281" y="0" type="line"/>
      <point x="202" y="0" type="line"/>
      <point x="202" y="165" type="line"/>
      <point x="51" y="165" type="line"/>
      <point x="51" y="213" type="line"/>
      <point x="202" y="213" type="line"/>
      <point x="202" y="280" type="line"/>
      <point x="176" y="337" type="line"/>
      <point x="51" y="337" type="line"/>
      <point x="51" y="385" type="line"/>
      <point x="157" y="385" type="line"/>
      <point x="15" y="720" type="line"/>
      <point x="103" y="720" type="line"/>
      <point x="246" y="355" type="line"/>
      <point x="388" y="720" type="line"/>
    </contour>
  </outline>
</glyph>
<glyph name="section" format="1">
  <advance width="454"/>
  <unicode hex="00A7"/>
  <outline>
    <contour>
      <point x="427" y="349" type="curve" smooth="yes"/>
      <point x="427" y="280"/>
      <point x="374" y="232"/>
      <point x="295" y="230" type="curve"/>
      <point x="295" y="225" type="line"/>
      <point x="344" y="203"/>
      <point x="382" y="168"/>
      <point x="382" y="106" type="curve" smooth="yes"/>
      <point x="382" y="36"/>
      <point x="327" y="-12"/>
      <point x="236" y="-12" type="curve" smooth="yes"/>
      <point x="169" y="-12"/>
      <point x="121" y="6"/>
      <point x="70" y="39" type="curve"/>
      <point x="99" y="93" type="line"/>
      <point x="145" y="62"/>
      <point x="190" y="46"/>
      <point x="238" y="46" type="curve" smooth="yes"/>
      <point x="286" y="46"/>
      <point x="314" y="70"/>
      <point x="314" y="107" type="curve" smooth="yes"/>
      <point x="314" y="147"/>
      <point x="293" y="177"/>
      <point x="196" y="213" type="curve" smooth="yes"/>
      <point x="82" y="255"/>
      <point x="27" y="297"/>
      <point x="27" y="371" type="curve" smooth="yes"/>
      <point x="27" y="440"/>
      <point x="80" y="488"/>
      <point x="158" y="490" type="curve"/>
      <point x="158" y="495" type="line"/>
      <point x="110" y="517"/>
      <point x="72" y="552"/>
      <point x="72" y="614" type="curve" smooth="yes"/>
      <point x="72" y="684"/>
      <point x="127" y="732"/>
      <point x="218" y="732" type="curve" smooth="yes"/>
      <point x="285" y="732"/>
      <point x="333" y="714"/>
      <point x="384" y="681" type="curve"/>
      <point x="355" y="627" type="line"/>
      <point x="310" y="658"/>
      <point x="264" y="674"/>
      <point x="217" y="674" type="curve" smooth="yes"/>
      <point x="168" y="674"/>
      <point x="139" y="650"/>
      <point x="139" y="613" type="curve" smooth="yes"/>
      <point x="139" y="573"/>
      <point x="161" y="543"/>
      <point x="258" y="507" type="curve" smooth="yes"/>
      <point x="372" y="465"/>
      <point x="427" y="423"/>
    </contour>
    <contour>
      <point x="360" y="337" type="curve" smooth="yes"/>
      <point x="360" y="373"/>
      <point x="339" y="407"/>
      <point x="269" y="438" type="curve" smooth="yes"/>
      <point x="238" y="451"/>
      <point x="209" y="456"/>
      <point x="177" y="456" type="curve" smooth="yes"/>
      <point x="131" y="456"/>
      <point x="94" y="431"/>
      <point x="94" y="383" type="curve" smooth="yes"/>
      <point x="94" y="347"/>
      <point x="115" y="313"/>
      <point x="185" y="282" type="curve" smooth="yes"/>
      <point x="216" y="269"/>
      <point x="245" y="264"/>
      <point x="278" y="264" type="curve" smooth="yes"/>
      <point x="323" y="264"/>
      <point x="360" y="289"/>
    </contour>
  </outline>
</glyph>
<glyph name="dieresis" format="1">
  <advance width="393"/>
  <unicode hex="00A8"/>
  <outline>
    <contour>
      <point x="304" y="579" type="line"/>
      <point x="232" y="579" type="line"/>
      <point x="232" y="663" type="line"/>
      <point x="304" y="663" type="line"/>
    </contour>
    <contour>
      <point x="161" y="579" type="line"/>
      <point x="89" y="579" type="line"/>
      <point x="89" y="663" type="line"/>
      <point x="161" y="663" type="line"/>
    </contour>
  </outline>
</glyph>
<glyph name="degree" format="1">
  <advance width="327"/>
  <unicode hex="00B0"/>
  <outline>
    <contour>
      <point x="289" y="602" type="curve" smooth="yes"/>
      <point x="289" y="531"/>
      <point x="236" y="480"/>
      <point x="165" y="480" type="curve" smooth="yes"/>
      <point x="94" y="480"/>
      <point x="41" y="531"/>
      <point x="41" y="602" type="curve" smooth="yes"/>
      <point x="41" y="673"/>
      <point x="94" y="724"/>
      <point x="165" y="724" type="curve" smooth="yes"/>
      <point x="236" y="724"/>
      <point x="289" y="673"/>
    </contour>
    <contour>
      <point x="243" y="602" type="curve" smooth="yes"/>
      <point x="243" y="649"/>
      <point x="211" y="683"/>
      <point x="165" y="683" type="curve" smooth="yes"/>
      <point x="120" y="683"/>
      <point x="88" y="649"/>
      <point x="88" y="602" type="curve" smooth="yes"/>
      <point x="88" y="555"/>
      <point x="120" y="520"/>
      <point x="165" y="520" type="curve" smooth="yes"/>
      <point x="211" y="520"/>
      <point x="243" y="555"/>
    </contour>
  </outline>
</glyph>
<glyph name="paragraph" format="1">
  <advance width="437"/>
  <unicode hex="00B6"/>
  <outline>
    <contour>
      <point x="377" y="0" type="line"/>
      <point x="334" y="0" type="line"/>
      <point x="334" y="678" type="line"/>
      <point x="253" y="678" type="line"/>
      <point x="253" y="0" type="line"/>
      <point x="210" y="0" type="line"/>
      <point x="210" y="350" type="line"/>
      <point x="104" y="358"/>
      <point x="25" y="414"/>
      <point x="25" y="538" type="curve" smooth="yes"/>
      <point x="25" y="661"/>
      <point x="104" y="720"/>
      <point x="220" y="720" type="curve" smooth="yes"/>
      <point x="377" y="720" type="line"/>
    </contour>
  </outline>
</glyph>
<glyph name="periodcentered" format="1">
  <advance width="168"/>
  <unicode hex="00B7"/>
  <outline>
    <contour>
      <point x="134" y="278" type="curve" smooth="yes"/>
      <point x="134" y="249"/>
      <point x="113" y="228"/>
      <point x="84" y="228" type="curve" smooth="yes"/>
      <point x="55" y="228"/>
      <point x="34" y="249"/>
      <point x="34" y="278" type="curve" smooth="yes"/>
      <point x="34" y="307"/>
      <point x="55" y="328"/>
      <point x="84" y="328" type="curve" smooth="yes"/>
      <point x="113" y="328"/>
      <point x="134" y="307"/>
    </contour>
  </outline>
</glyph>
<glyph name="guillemotright" format="1">
  <advance width="372"/>
  <unicode hex="00BB"/>
  <outline>
    <contour>
      <point x="355" y="260" type="line"/>
      <point x="229" y="76" type="line"/>
      <point x="185" y="76" type="line"/>
      <point x="273" y="260" type="line"/>
      <point x="185" y="445" type="line"/>
      <point x="229" y="445" type="line"/>
    </contour>
    <contour>
      <point x="199" y="260" type="line"/>
      <point x="73" y="76" type="line"/>
      <point x="27" y="76" type="line"/>
      <point x="116" y="260" type="line"/>
      <point x="27" y="445" type="line"/>
      <point x="73" y="445" type="line"/>
    </contour>
  </outline>
</glyph>
<glyph name="AE" format="1">
  <advance width="734"/>
  <unicode hex="00C6"/>
  <outline>
    <contour>
      <point x="708" y="0" type="line"/>
      <point x="368" y="0" type="line"/>
      <point x="368" y="186" type="line"/>
      <point x="167" y="186" type="line"/>
      <point x="93" y="0" type="line"/>
      <point x="10" y="0" type="line"/>
      <point x="298" y="720" type="line"/>
      <point x="699" y="720" type="line"/>
      <point x="699" y="654" type="line"/>
      <point x="450" y="654" type="line"/>
      <point x="450" y="408" type="line"/>
      <point x="651" y="408" type="line"/>
      <point x="651" y="344" type="line"/>
      <point x="450" y="344" type="line"/>
      <point x="450" y="66" type="line"/>
      <point x="708" y="66" type="line"/>
    </contour>
    <contour>
      <point x="368" y="247" type="line"/>
      <point x="368" y="654" type="line"/>
      <point x="350" y="654" type="line"/>
      <point x="187" y="247" type="line"/>
    </contour>
  </outline>
</glyph>
<glyph name="germandbls" format="1">
  <advance width="470"/>
  <unicode hex="00DF"/>
  <outline>
    <contour>
      <point x="442" y="184" type="curve" smooth="yes"/>
      <point x="442" y="58"/>
      <point x="378" y="-9"/>
      <point x="292" y="-9" type="curve" smooth="yes"/>
      <point x="239" y="-9"/>
      <point x="211" y="10"/>
      <point x="185" y="38" type="curve"/>
      <point x="204" y="91" type="line"/>
      <point x="224" y="66"/>
      <point x="244" y="48"/>
      <point x="279" y="48" type="curve" smooth="yes"/>
      <point x="324" y="48"/>
      <point x="364" y="94"/>
      <point x="364" y="183" type="curve" smooth="yes"/>
      <point x="364" y="298"/>
      <point x="308" y="371"/>
      <point x="205" y="386" type="curve"/>
      <point x="205" y="438" type="line"/>
      <point x="280" y="442"/>
      <point x="315" y="506"/>
      <point x="315" y="580" type="curve" smooth="yes"/>
      <point x="315" y="649"/>
      <point x="285" y="704"/>
      <point x="225" y="704" type="curve" smooth="yes"/>
      <point x="161" y="704"/>
      <point x="131" y="654"/>
      <point x="131" y="559" type="curve" smooth="yes"/>
      <point x="131" y="0" type="line"/>
      <point x="50" y="0" type="line"/>
      <point x="50" y="550" type="line" smooth="yes"/>
      <point x="50" y="689"/>
      <point x="121" y="759"/>
      <point x="226" y="759" type="curve" smooth="yes"/>
      <point x="328" y="759"/>
      <point x="391" y="686"/>
      <point x="391" y="586" type="curve" smooth="yes"/>
      <point x="391" y="495"/>
      <point x="343" y="438"/>
      <point x="291" y="417" type="curve"/>
      <point x="291" y="411" type="line"/>
      <point x="371" y="383"/>
      <point x="442" y="310"/>
    </contour>
  </outline>
</glyph>
<glyph name="eth" format="1">
  <advance width="399"/>
  <unicode hex="00F0"/>
  <outline>
    <contour>
      <point x="370" y="242" type="line" smooth="yes"/>
      <point x="370" y="88"/>
      <point x="302" y="-10"/>
      <point x="198" y="-10" type="curve" smooth="yes"/>
      <point x="94" y="-10"/>
      <point x="31" y="88"/>
      <point x="31" y="242" type="curve" smooth="yes"/>
      <point x="31" y="278" type="line" smooth="yes"/>
      <point x="31" y="432"/>
      <point x="90" y="528"/>
      <point x="184" y="528" type="curve" smooth="yes"/>
      <point x="234" y="528"/>
      <point x="269" y="488"/>
      <point x="292" y="432" type="curve"/>
      <point x="296" y="432" type="line"/>
      <point x="287" y="511"/>
      <point x="254" y="584"/>
      <point x="208" y="647" type="curve"/>
      <point x="119" y="584" type="line"/>
      <point x="119" y="627" type="line"/>
      <point x="186" y="675" type="line"/>
      <point x="168" y="696"/>
      <point x="150" y="717"/>
      <point x="129" y="735" type="curve"/>
      <point x="189" y="762" type="line"/>
      <point x="206" y="745"/>
      <point x="223" y="726"/>
      <point x="240" y="704" type="curve"/>
      <point x="326" y="762" type="line"/>
      <point x="326" y="721" type="line"/>
      <point x="261" y="676" type="line"/>
      <point x="321" y="591"/>
      <point x="370" y="473"/>
      <point x="370" y="291" type="curve" smooth="yes"/>
    </contour>
    <contour>
      <point x="293" y="237" type="curve" smooth="yes"/>
      <point x="293" y="283" type="line" smooth="yes"/>
      <point x="293" y="406"/>
      <point x="257" y="477"/>
      <point x="200" y="477" type="curve" smooth="yes"/>
      <point x="143" y="477"/>
      <point x="108" y="406"/>
      <point x="108" y="283" type="curve" smooth="yes"/>
      <point x="108" y="237" type="line" smooth="yes"/>
      <point x="108" y="115"/>
      <point x="144" y="44"/>
      <point x="202" y="44" type="curve" smooth="yes"/>
      <point x="258" y="44"/>
      <point x="293" y="115"/>
    </contour>
  </outline>
</glyph>
<glyph name="divide" format="1">
  <advance width="473"/>
  <unicode hex="00F7"/>
  <outline>
    <contour>
      <point x="288" y="531" type="curve" smooth="yes"/>
      <point x="288" y="502"/>
      <point x="266" y="481"/>
      <point x="237" y="481" type="curve" smooth="yes"/>
      <point x="207" y="481"/>
      <point x="185" y="502"/>
      <point x="185" y="531" type="curve" smooth="yes"/>
      <point x="185" y="561"/>
      <point x="207" y="582"/>
      <point x="237" y="582" type="curve" smooth="yes"/>
      <point x="266" y="582"/>
      <point x="288" y="561"/>
    </contour>
    <contour>
      <point x="439" y="321" type="line"/>
      <point x="33" y="321" type="line"/>
      <point x="33" y="388" type="line"/>
      <point x="439" y="388" type="line"/>
    </contour>
    <contour>
      <point x="288" y="178" type="curve" smooth="yes"/>
      <point x="288" y="149"/>
      <point x="266" y="128"/>
      <point x="237" y="128" type="curve" smooth="yes"/>
      <point x="207" y="128"/>
      <point x="185" y="149"/>
      <point x="185" y="178" type="curve" smooth="yes"/>
      <point x="185" y="208"/>
      <point x="207" y="229"/>
      <point x="237" y="229" type="curve" smooth="yes"/>
      <point x="266" y="229"/>
      <point x="288" y="208"/>
    </contour>
  </outline>
</glyph>
<glyph name="dotlessi" format="1">
  <advance width="189"/>
  <unicode hex="0131"/>
  <outline>
    <contour>
      <point x="134" y="0" type="line"/>
      <point x="55" y="0" type="line"/>
      <point x="55" y="521" type="line"/>
      <point x="134" y="521" type="line"/>
    </contour>
  </outline>
</glyph>
<glyph name="oe" format="1">
  <advance width="644"/>
  <unicode hex="0153"/>
  <outline>
    <contour>
      <point x="615" y="243" type="line"/>
      <point x="367" y="243" type="line"/>
      <point x="367" y="227" type="line" smooth="yes"/>
      <point x="367" y="112"/>
      <point x="411" y="51"/>
      <point x="480" y="51" type="curve" smooth="yes"/>
      <point x="519" y="51"/>
      <point x="557" y="70"/>
      <point x="590" y="103" type="curve"/>
      <point x="614" y="53" type="line"/>
      <point x="575" y="16"/>
      <point x="527" y="-9"/>
      <point x="470" y="-9" type="curve" smooth="yes"/>
      <point x="404" y="-9"/>
      <point x="356" y="36"/>
      <point x="336" y="113" type="curve"/>
      <point x="330" y="113" type="line"/>
      <point x="310" y="40"/>
      <point x="265" y="-10"/>
      <point x="199" y="-10" type="curve" smooth="yes"/>
      <point x="96" y="-10"/>
      <point x="31" y="92"/>
      <point x="31" y="240" type="curve" smooth="yes"/>
      <point x="31" y="282" type="line" smooth="yes"/>
      <point x="31" y="429"/>
      <point x="97" y="531"/>
      <point x="200" y="531" type="curve" smooth="yes"/>
      <point x="264" y="531"/>
      <point x="312" y="480"/>
      <point x="329" y="407" type="curve"/>
      <point x="335" y="407" type="line"/>
      <point x="353" y="481"/>
      <point x="400" y="531"/>
      <point x="460" y="531" type="curve" smooth="yes"/>
      <point x="557" y="531"/>
      <point x="615" y="426"/>
      <point x="615" y="264" type="curve" smooth="yes"/>
    </contour>
    <contour>
      <point x="542" y="285" type="line"/>
      <point x="540" y="404"/>
      <point x="509" y="478"/>
      <point x="458" y="478" type="curve" smooth="yes"/>
      <point x="401" y="478"/>
      <point x="367" y="407"/>
      <point x="367" y="288" type="curve" smooth="yes"/>
      <point x="367" y="285" type="line"/>
    </contour>
    <contour>
      <point x="295" y="230" type="curve" smooth="yes"/>
      <point x="295" y="290" type="line" smooth="yes"/>
      <point x="295" y="403"/>
      <point x="258" y="477"/>
      <point x="200" y="477" type="curve" smooth="yes"/>
      <point x="142" y="477"/>
      <point x="108" y="403"/>
      <point x="108" y="290" type="curve" smooth="yes"/>
      <point x="108" y="230" type="line" smooth="yes"/>
      <point x="108" y="118"/>
      <point x="144" y="44"/>
      <point x="202" y="44" type="curve" smooth="yes"/>
      <point x="259" y="44"/>
      <point x="295" y="118"/>
    </contour>
  </outline>
</glyph>
<glyph name="florin" format="1">
  <advance width="368"/>
  <unicode hex="0192"/>
  <outline>
    <contour>
      <point x="361" y="712" type="curve"/>
      <point x="357" y="652" type="line"/>
      <point x="336" y="661"/>
      <point x="319" y="664"/>
      <point x="295" y="664" type="curve" smooth="yes"/>
      <point x="259" y="664"/>
      <point x="234" y="641"/>
      <point x="226" y="586" type="curve" smooth="yes"/>
      <point x="208" y="460" type="line"/>
      <point x="310" y="460" type="line"/>
      <point x="302" y="400" type="line"/>
      <point x="200" y="400" type="line"/>
      <point x="135" y="-72" type="line" smooth="yes"/>
      <point x="123" y="-161"/>
      <point x="74" y="-190"/>
      <point x="16" y="-190" type="curve" smooth="yes"/>
      <point x="-9" y="-190"/>
      <point x="-32" y="-185"/>
      <point x="-49" y="-180" type="curve"/>
      <point x="-40" y="-120" type="line"/>
      <point x="-27" y="-125"/>
      <point x="-10" y="-128"/>
      <point x="7" y="-128" type="curve" smooth="yes"/>
      <point x="34" y="-128"/>
      <point x="53" y="-111"/>
      <point x="59" y="-64" type="curve" smooth="yes"/>
      <point x="123" y="400" type="line"/>
      <point x="43" y="400" type="line"/>
      <point x="52" y="460" type="line"/>
      <point x="132" y="460" type="line"/>
      <point x="150" y="592" type="line" smooth="yes"/>
      <point x="163" y="690"/>
      <point x="212" y="726"/>
      <point x="281" y="726" type="curve" smooth="yes"/>
      <point x="315" y="726"/>
      <point x="339" y="720"/>
    </contour>
  </outline>
</glyph>
<glyph name="breve" format="1">
  <advance width="393"/>
  <unicode hex="02D8"/>
  <outline>
    <contour>
      <point x="310" y="705" type="line"/>
      <point x="307" y="625"/>
      <point x="269" y="576"/>
      <point x="197" y="576" type="curve" smooth="yes"/>
      <point x="124" y="576"/>
      <point x="86" y="625"/>
      <point x="83" y="705" type="curve"/>
      <point x="119" y="705" type="line"/>
      <point x="126" y="652"/>
      <point x="153" y="627"/>
      <point x="197" y="627" type="curve" smooth="yes"/>
      <point x="240" y="627"/>
      <point x="268" y="652"/>
      <point x="275" y="705" type="curve"/>
    </contour>
  </outline>
</glyph>
<glyph name="ogonek" format="1">
  <advance width="393"/>
  <unicode hex="02DB"/>
  <outline>
    <contour>
      <point x="296" y="-132" type="line"/>
      <point x="263" y="-150"/>
      <point x="230" y="-161"/>
      <point x="195" y="-161" type="curve" smooth="yes"/>
      <point x="145" y="-161"/>
      <point x="114" y="-138"/>
      <point x="114" y="-97" type="curve" smooth="yes"/>
      <point x="114" y="-60"/>
      <point x="145" y="-26"/>
      <point x="189" y="0" type="curve"/>
      <point x="226" y="0" type="line"/>
      <point x="187" y="-30"/>
      <point x="168" y="-60"/>
      <point x="168" y="-87" type="curve" smooth="yes"/>
      <point x="168" y="-109"/>
      <point x="185" y="-124"/>
      <point x="210" y="-124" type="curve" smooth="yes"/>
      <point x="236" y="-124"/>
      <point x="257" y="-119"/>
      <point x="285" y="-108" type="curve"/>
    </contour>
  </outline>
</glyph>
<glyph name="quoteright" format="1">
  <advance width="168"/>
  <unicode hex="2019"/>
  <unicode hex="02BC"/>
  <outline>
    <contour>
      <point x="143" y="720" type="line"/>
      <point x="69" y="506" type="line"/>
      <point x="32" y="506" type="line"/>
      <point x="62" y="720" type="line"/>
    </contour>
  </outline>
</glyph>
<glyph name="quotedblleft" format="1">
  <advance width="304"/>
  <unicode hex="201C"/>
  <outline>
    <contour>
      <point x="272" y="506" type="line"/>
      <point x="238" y="506" type="line"/>
      <point x="163" y="720" type="line"/>
      <point x="242" y="720" type="line"/>
    </contour>
    <contour>
      <point x="134" y="506" type="line"/>
      <point x="100" y="506" type="line"/>
      <point x="25" y="720" type="line"/>
      <point x="105" y="720" type="line"/>
    </contour>
  </outline>
</glyph>
<glyph name="quotedblright" format="1">
  <advance width="304"/>
  <unicode hex="201D"/>
  <outline>
    <contour>
      <point x="280" y="720" type="line"/>
      <point x="205" y="506" type="line"/>
      <point x="171" y="506" type="line"/>
      <point x="200" y="720" type="line"/>
    </contour>
    <contour>
      <point x="142" y="720" type="line"/>
      <point x="67" y="506" type="line"/>
      <point x="32" y="506" type="line"/>
      <point x="62" y="720" type="line"/>
    </contour>
  </outline>
</glyph>
<glyph name="quotedblbase" format="1">
  <advance width="304"/>
  <unicode hex="201E"/>
  <outline>
    <contour>
      <point x="271" y="104" type="line"/>
      <point x="197" y="-110" type="line"/>
      <point x="162" y="-110" type="line"/>
      <point x="193" y="104" type="line"/>
    </contour>
    <contour>
      <point x="134" y="104" type="line"/>
      <point x="60" y="-110" type="line"/>
      <point x="25" y="-110" type="line"/>
      <point x="54" y="104" type="line"/>
    </contour>
  </outline>
</glyph>
<glyph name="perthousand" format="1">
  <advance width="932"/>
  <unicode hex="2030"/>
  <outline>
    <contour>
      <point x="295" y="543" type="curve" smooth="yes"/>
      <point x="295" y="426"/>
      <point x="236" y="359"/>
      <point x="158" y="359" type="curve" smooth="yes"/>
      <point x="81" y="359"/>
      <point x="24" y="425"/>
      <point x="24" y="543" type="curve" smooth="yes"/>
      <point x="24" y="661"/>
      <point x="82" y="727"/>
      <point x="160" y="727" type="curve" smooth="yes"/>
      <point x="237" y="727"/>
      <point x="295" y="662"/>
    </contour>
    <contour>
      <point x="522" y="720" type="line"/>
      <point x="333" y="350" type="line"/>
      <point x="174" y="1" type="line"/>
      <point x="106" y="1" type="line"/>
      <point x="295" y="371" type="line"/>
      <point x="454" y="720" type="line"/>
    </contour>
    <contour>
      <point x="909" y="178" type="curve" smooth="yes"/>
      <point x="909" y="60"/>
      <point x="849" y="-7"/>
      <point x="772" y="-7" type="curve" smooth="yes"/>
      <point x="695" y="-7"/>
      <point x="637" y="59"/>
      <point x="637" y="178" type="curve" smooth="yes"/>
      <point x="637" y="294"/>
      <point x="696" y="361"/>
      <point x="774" y="361" type="curve" smooth="yes"/>
      <point x="851" y="361"/>
      <point x="909" y="296"/>
    </contour>
    <contour>
      <point x="603" y="178" type="curve" smooth="yes"/>
      <point x="603" y="60"/>
      <point x="544" y="-7"/>
      <point x="467" y="-7" type="curve" smooth="yes"/>
      <point x="389" y="-7"/>
      <point x="332" y="59"/>
      <point x="332" y="178" type="curve" smooth="yes"/>
      <point x="332" y="294"/>
      <point x="391" y="361"/>
      <point x="468" y="361" type="curve" smooth="yes"/>
      <point x="546" y="361"/>
      <point x="603" y="296"/>
    </contour>
    <contour>
      <point x="230" y="542" type="curve" smooth="yes"/>
      <point x="230" y="620"/>
      <point x="208" y="671"/>
      <point x="159" y="671" type="curve" smooth="yes"/>
      <point x="111" y="671"/>
      <point x="89" y="621"/>
      <point x="89" y="544" type="curve" smooth="yes"/>
      <point x="89" y="466"/>
      <point x="111" y="414"/>
      <point x="159" y="414" type="curve" smooth="yes"/>
      <point x="207" y="414"/>
      <point x="230" y="464"/>
    </contour>
    <contour>
      <point x="844" y="177" type="curve" smooth="yes"/>
      <point x="844" y="255"/>
      <point x="821" y="306"/>
      <point x="773" y="306" type="curve" smooth="yes"/>
      <point x="725" y="306"/>
      <point x="702" y="256"/>
      <point x="702" y="179" type="curve" smooth="yes"/>
      <point x="702" y="101"/>
      <point x="724" y="49"/>
      <point x="773" y="49" type="curve" smooth="yes"/>
      <point x="821" y="49"/>
      <point x="844" y="99"/>
    </contour>
    <contour>
      <point x="539" y="177" type="curve" smooth="yes"/>
      <point x="539" y="255"/>
      <point x="516" y="306"/>
      <point x="467" y="306" type="curve" smooth="yes"/>
      <point x="420" y="306"/>
      <point x="397" y="256"/>
      <point x="397" y="179" type="curve" smooth="yes"/>
      <point x="397" y="101"/>
      <point x="419" y="49"/>
      <point x="467" y="49" type="curve" smooth="yes"/>
      <point x="515" y="49"/>
      <point x="539" y="99"/>
    </contour>
  </outline>
</glyph>
<glyph name="guilsinglleft" format="1">
  <advance width="215"/>
  <unicode hex="2039"/>
  <outline>
    <contour>
      <point x="187" y="76" type="line"/>
      <point x="142" y="76" type="line"/>
      <point x="16" y="260" type="line"/>
      <point x="142" y="445" type="line"/>
      <point x="187" y="445" type="line"/>
      <point x="99" y="260" type="line"/>
    </contour>
  </outline>
</glyph>
<glyph name="fraction" format="1">
  <advance width="301"/>
  <unicode hex="2044"/>
  <outline>
    <contour>
      <point x="336" y="735" type="line"/>
      <point x="33" y="-15" type="line"/>
      <point x="-34" y="-15" type="line"/>
      <point x="269" y="735" type="line"/>
    </contour>
  </outline>
</glyph>
<glyph name="trademark" format="1">
  <advance width="539"/>
  <unicode hex="2122"/>
  <outline>
    <contour>
      <point x="504" y="441" type="line"/>
      <point x="459" y="441" type="line"/>
      <point x="459" y="665" type="line"/>
      <point x="457" y="665" type="line"/>
      <point x="399" y="441" type="line"/>
      <point x="349" y="441" type="line"/>
      <point x="290" y="665" type="line"/>
      <point x="288" y="665" type="line"/>
      <point x="288" y="441" type="line"/>
      <point x="247" y="441" type="line"/>
      <point x="247" y="720" type="line"/>
      <point x="319" y="720" type="line"/>
      <point x="375" y="500" type="line"/>
      <point x="377" y="500" type="line"/>
      <point x="433" y="720" type="line"/>
      <point x="504" y="720" type="line"/>
    </contour>
    <contour>
      <point x="207" y="680" type="line"/>
      <point x="137" y="680" type="line"/>
      <point x="137" y="441" type="line"/>
      <point x="90" y="441" type="line"/>
      <point x="90" y="680" type="line"/>
      <point x="20" y="680" type="line"/>
      <point x="20" y="720" type="line"/>
      <point x="207" y="720" type="line"/>
    </contour>
  </outline>
</glyph>
<glyph name="apple" format="1">
  <advance width="500"/>
  <unicode hex="F8FF"/>
  <outline>
    <contour>
      <point x="462" y="180" type="line"/>
      <point x="435" y="101" type="line"/>
      <point x="265" y="187" type="line"/>
      <point x="292" y="0" type="line"/>
      <point x="208" y="0" type="line"/>
      <point x="235" y="187" type="line"/>
      <point x="65" y="101" type="line"/>
      <point x="38" y="180" type="line"/>
      <point x="224" y="214" type="line"/>
      <point x="85" y="357" type="line"/>
      <point x="85" y="363" type="line"/>
      <point x="224" y="506" type="line"/>
      <point x="38" y="540" type="line"/>
      <point x="65" y="619" type="line"/>
      <point x="235" y="533" type="line"/>
      <point x="208" y="720" type="line"/>
      <point x="292" y="720" type="line"/>
      <point x="265" y="533" type="line"/>
      <point x="435" y="619" type="line"/>
      <point x="462" y="540" type="line"/>
      <point x="276" y="506" type="line"/>
      <point x="415" y="363" type="line"/>
      <point x="415" y="357" type="line"/>
      <point x="276" y="214" type="line"/>
    </contour>
    <contour>
      <point x="337" y="360" type="line"/>
      <point x="250" y="497" type="line"/>
      <point x="163" y="360" type="line"/>
      <point x="250" y="223" type="line"/>
    </contour>
  </outline>
</glyph>
<glyph name="fl" format="1">
  <advance width="453"/>
  <unicode hex="FB02"/>
  <outline>
    <contour>
      <point x="398" y="0" type="line"/>
      <point x="320" y="0" type="line"/>
      <point x="320" y="738" type="line"/>
      <point x="398" y="760" type="line"/>
    </contour>
    <contour>
      <point x="275" y="689" type="line"/>
      <point x="259" y="698"/>
      <point x="245" y="703"/>
      <point x="222" y="703" type="curve" smooth="yes"/>
      <point x="188" y="703"/>
      <point x="165" y="682"/>
      <point x="165" y="630" type="curve" smooth="yes"/>
      <point x="165" y="517" type="line"/>
      <point x="259" y="517" type="line"/>
      <point x="259" y="461" type="line"/>
      <point x="165" y="461" type="line"/>
      <point x="165" y="0" type="line"/>
      <point x="88" y="0" type="line"/>
      <point x="88" y="461" type="line"/>
      <point x="9" y="461" type="line"/>
      <point x="9" y="517" type="line"/>
      <point x="88" y="517" type="line"/>
      <point x="88" y="634" type="line" smooth="yes"/>
      <point x="88" y="718"/>
      <point x="132" y="759"/>
      <point x="203" y="759" type="curve" smooth="yes"/>
      <point x="238" y="759"/>
      <point x="256" y="756"/>
      <point x="275" y="749" type="curve"/>
    </contour>
  </outline>
</glyph>
<glyph name="I.salt" format="1">
  <advance width="214"/>
  <outline>
    <contour>
      <point x="148" y="0" type="line"/>
      <point x="65" y="0" type="line"/>
      <point x="65" y="720" type="line"/>
      <point x="148" y="720" type="line"/>
    </contour>
  </outline>
</glyph>
<glyph name="bullet" format="1">
  <advance width="306"/>
  <outline>
    <contour>
      <point x="262" y="373" type="curve" smooth="yes"/>
      <point x="262" y="312"/>
      <point x="215" y="264"/>
      <point x="153" y="264" type="curve" smooth="yes"/>
      <point x="92" y="264"/>
      <point x="43" y="312"/>
      <point x="43" y="373" type="curve" smooth="yes"/>
      <point x="43" y="434"/>
      <point x="92" y="482"/>
      <point x="153" y="482" type="curve" smooth="yes"/>
      <point x="215" y="482"/>
      <point x="262" y="434"/>
    </contour>
  </outline>
</glyph>
